{
  "accessors": [
    {
      "bufferView": 2,
      "componentType": 5126,
      "count": 65532,
      "max": [
        67.41251373291016,
        66.94708251953125,
        -2.1245100498199463
      ],
      "min": [
        -59.94321823120117,
        -71.46810913085938,
        -73.15818786621094
      ],
      "type": "VEC3"
    },
    {
      "bufferView": 2,
      "byteOffset": 786384,
      "componentType": 5126,
      "count": 65532,
      "max": [
        0.9999282956123352,
        0.9999510049819946,
        0.9999979734420776
      ],
      "min": [
        -0.9999998807907104,
        -0.9999268651008606,
        -0.9934160709381104
      ],
      "type": "VEC3"
    },
    {
      "bufferView": 1,
      "componentType": 5126,
      "count": 65532,
      "max": [
        0.9973199963569641,
        0.9969199895858765
      ],
      "min": [
        0.0028200000524520874,
        0.010440000332891941
      ],
      "type": "VEC2"
    },
    {
      "bufferView": 0,
      "componentType": 5125,
      "count": 314610,
      "type": "SCALAR"
    },
    {
      "bufferView": 2,
      "byteOffset": 1572768,
      "componentType": 5126,
      "count": 65532,
      "max": [
        69.7615966796875,
        71.51825714111328,
        -60.44084167480469
      ],
      "min": [
        -69.7615966796875,
        -71.49117279052734,
        -73.52644348144531
      ],
      "type": "VEC3"
    },
    {
      "bufferView": 2,
      "byteOffset": 2359152,
      "componentType": 5126,
      "count": 65532,
      "max": [
        1.0,
        0.9997826814651489,
        0.9999967813491821
      ],
      "min": [
        -0.9999990463256836,
        -0.9999999403953552,
        -0.9995110630989075
      ],
      "type": "VEC3"
    },
    {
      "bufferView": 1,
      "byteOffset": 524256,
      "componentType": 5126,
      "count": 65532,
      "max": [
        0.9996299743652344,
        0.9970200061798096
      ],
      "min": [
        0.0029899999499320984,
        0.0003699999942909926
      ],
      "type": "VEC2"
    },
    {
      "bufferView": 0,
      "byteOffset": 1258440,
      "componentType": 5125,
      "count": 229248,
      "type": "SCALAR"
    },
    {
      "bufferView": 2,
      "byteOffset": 3145536,
      "componentType": 5126,
      "count": 65532,
      "max": [
        69.75631713867188,
        71.4720230102539,
        -65.01051330566406
      ],
      "min": [
        -69.75251770019531,
        -71.51825714111328,
        -73.59882354736328
      ],
      "type": "VEC3"
    },
    {
      "bufferView": 2,
      "byteOffset": 3931920,
      "componentType": 5126,
      "count": 65532,
      "max": [
        0.9999901652336121,
        0.9997645616531372,
        0.9999749064445496
      ],
      "min": [
        -0.9999901652336121,
        -0.9999998807907104,
        -0.9978669285774231
      ],
      "type": "VEC3"
    },
    {
      "bufferView": 1,
      "byteOffset": 1048512,
      "componentType": 5126,
      "count": 65532,
      "max": [
        0.9996299743652344,
        0.9944000244140625
      ],
      "min": [
        0.002839999971911311,
        0.0003699999942909926
      ],
      "type": "VEC2"
    },
    {
      "bufferView": 0,
      "byteOffset": 2175432,
      "componentType": 5125,
      "count": 120321,
      "type": "SCALAR"
    },
    {
      "bufferView": 2,
      "byteOffset": 4718304,
      "componentType": 5126,
      "count": 65534,
      "max": [
        69.4195327758789,
        70.02149963378906,
        -68.95065307617188
      ],
      "min": [
        -69.38910675048828,
        -71.20478820800781,
        -74.10906982421875
      ],
      "type": "VEC3"
    },
    {
      "bufferView": 2,
      "byteOffset": 5504712,
      "componentType": 5126,
      "count": 65534,
      "max": [
        0.9999901652336121,
        0.9997169971466064,
        0.9960150122642517
      ],
      "min": [
        -0.9989876747131348,
        -0.9869760870933533,
        -1.0
      ],
      "type": "VEC3"
    },
    {
      "bufferView": 1,
      "byteOffset": 1572768,
      "componentType": 5126,
      "count": 65534,
      "max": [
        0.9996299743652344,
        0.7677099704742432
      ],
      "min": [
        0.0029100000392645597,
        0.0003699999942909926
      ],
      "type": "VEC2"
    },
    {
      "bufferView": 0,
      "byteOffset": 2656716,
      "componentType": 5125,
      "count": 66828,
      "type": "SCALAR"
    },
    {
      "bufferView": 2,
      "byteOffset": 6291120,
      "componentType": 5126,
      "count": 65532,
      "max": [
        69.21399688720703,
        -4.917500019073486,
        -72.64766693115234
      ],
      "min": [
        -69.11076354980469,
        -71.0006332397461,
        -74.10930633544922
      ],
      "type": "VEC3"
    },
    {
      "bufferView": 2,
      "byteOffset": 7077504,
      "componentType": 5126,
      "count": 65532,
      "max": [
        0.9742896556854248,
        0.9619453549385071,
        0.8245253562927246
      ],
      "min": [
        -0.945336103439331,
        -0.9603015184402466,
        -1.0
      ],
      "type": "VEC3"
    },
    {
      "bufferView": 1,
      "byteOffset": 2097040,
      "componentType": 5126,
      "count": 65532,
      "max": [
        0.9993900060653687,
        0.7320600152015686
      ],
      "min": [
        0.1495400071144104,
        0.0006099999882280827
      ],
      "type": "VEC2"
    },
    {
      "bufferView": 0,
      "byteOffset": 2924028,
      "componentType": 5125,
      "count": 65532,
      "type": "SCALAR"
    },
    {
      "bufferView": 2,
      "byteOffset": 7863888,
      "componentType": 5126,
      "count": 65533,
      "max": [
        69.6063232421875,
        70.5255126953125,
        -69.26383972167969
      ],
      "min": [
        -69.30232238769531,
        -70.62610626220703,
        -74.10928344726563
      ],
      "type": "VEC3"
    },
    {
      "bufferView": 2,
      "byteOffset": 8650284,
      "componentType": 5126,
      "count": 65533,
      "max": [
        0.999439001083374,
        0.9997169971466064,
        0.998526930809021
      ],
      "min": [
        -0.9992439150810242,
        -0.9986417889595032,
        -1.0
      ],
      "type": "VEC3"
    },
    {
      "bufferView": 1,
      "byteOffset": 2621296,
      "componentType": 5126,
      "count": 65533,
      "max": [
        0.9996299743652344,
        0.9707800149917603
      ],
      "min": [
        0.002940000034868717,
        0.0003699999942909926
      ],
      "type": "VEC2"
    },
    {
      "bufferView": 0,
      "byteOffset": 3186156,
      "componentType": 5125,
      "count": 68586,
      "type": "SCALAR"
    },
    {
      "bufferView": 2,
      "byteOffset": 9436680,
      "componentType": 5126,
      "count": 65532,
      "max": [
        69.51325225830078,
        71.45955657958984,
        -68.2315673828125
      ],
      "min": [
        -69.23313903808594,
        -70.6544418334961,
        -73.07803344726563
      ],
      "type": "VEC3"
    },
    {
      "bufferView": 2,
      "byteOffset": 10223064,
      "componentType": 5126,
      "count": 65532,
      "max": [
        0.9994844794273376,
        0.9993650317192078,
        0.9952543377876282
      ],
      "min": [
        -0.9995708465576172,
        -0.999805748462677,
        -0.9996459484100342
      ],
      "type": "VEC3"
    },
    {
      "bufferView": 1,
      "byteOffset": 3145560,
      "componentType": 5126,
      "count": 65532,
      "max": [
        0.9996299743652344,
        0.9890599846839905
      ],
      "min": [
        0.0003699999942909926,
        0.0003699999942909926
      ],
      "type": "VEC2"
    },
    {
      "bufferView": 0,
      "byteOffset": 3460500,
      "componentType": 5125,
      "count": 72726,
      "type": "SCALAR"
    },
    {
      "bufferView": 2,
      "byteOffset": 11009448,
      "componentType": 5126,
      "count": 65532,
      "max": [
        69.63255310058594,
        71.3589096069336,
        -14.666589736938477
      ],
      "min": [
        -69.25270080566406,
        -71.44243621826172,
        -71.0636215209961
      ],
      "type": "VEC3"
    },
    {
      "bufferView": 2,
      "byteOffset": 11795832,
      "componentType": 5126,
      "count": 65532,
      "max": [
        0.9997487664222717,
        0.999548077583313,
        0.9997469186782837
      ],
      "min": [
        -0.9999536871910095,
        -0.9999996423721313,
        -0.9993010759353638
      ],
      "type": "VEC3"
    },
    {
      "bufferView": 1,
      "byteOffset": 3669816,
      "componentType": 5126,
      "count": 65532,
      "max": [
        0.9996299743652344,
        0.994379997253418
      ],
      "min": [
        0.0029200001154094934,
        0.0024800000246614218
      ],
      "type": "VEC2"
    },
    {
      "bufferView": 0,
      "byteOffset": 3751404,
      "componentType": 5125,
      "count": 238155,
      "type": "SCALAR"
    },
    {
      "bufferView": 2,
      "byteOffset": 12582216,
      "componentType": 5126,
      "count": 65532,
      "max": [
        35.841270446777344,
        66.3709716796875,
        -5.108940124511719
      ],
      "min": [
        -57.131568908691406,
        -49.01054000854492,
        -47.4380989074707
      ],
      "type": "VEC3"
    },
    {
      "bufferView": 2,
      "byteOffset": 13368600,
      "componentType": 5126,
      "count": 65532,
      "max": [
        0.9999282956123352,
        0.9999419450759888,
        0.9999998807907104
      ],
      "min": [
        -0.9999179244041443,
        -0.9999583959579468,
        -0.9997225999832153
      ],
      "type": "VEC3"
    },
    {
      "bufferView": 1,
      "byteOffset": 4194072,
      "componentType": 5126,
      "count": 65532,
      "max": [
        0.9991499781608582,
        0.9894199967384338
      ],
      "min": [
        0.003019999945536256,
        0.0003699999942909926
      ],
      "type": "VEC2"
    },
    {
      "bufferView": 0,
      "byteOffset": 4704024,
      "componentType": 5125,
      "count": 292224,
      "type": "SCALAR"
    },
    {
      "bufferView": 2,
      "byteOffset": 14154984,
      "componentType": 5126,
      "count": 22782,
      "max": [
        36.965728759765625,
        67.31593322753906,
        -3.148969888687134
      ],
      "min": [
        -57.03763961791992,
        -11.088939666748047,
        -17.590389251708984
      ],
      "type": "VEC3"
    },
    {
      "bufferView": 2,
      "byteOffset": 14428368,
      "componentType": 5126,
      "count": 22782,
      "max": [
        0.9997152090072632,
        0.9999597072601318,
        0.9999950528144836
      ],
      "min": [
        -0.999912679195404,
        -0.9992272257804871,
        -0.9992825388908386
      ],
      "type": "VEC3"
    },
    {
      "bufferView": 1,
      "byteOffset": 4718328,
      "componentType": 5126,
      "count": 22782,
      "max": [
        0.9973899722099304,
        0.9970899820327759
      ],
      "min": [
        0.0031900000758469105,
        0.0031999999191612005
      ],
      "type": "VEC2"
    },
    {
      "bufferView": 0,
      "byteOffset": 5872920,
      "componentType": 5125,
      "count": 99378,
      "type": "SCALAR"
    }
  ],
  "asset": {
    "extras": {
      "author": "Qlone (https://sketchfab.com/Qlone)",
      "license": "CC-BY-ND-4.0 (http://creativecommons.org/licenses/by-nd/4.0/)",
      "source": "https://sketchfab.com/3d-models/bamba-snack-6f3efbac2e48438ab7bf1bb63ee50f74",
      "title": "Bamba Snack"
    },
    "generator": "Sketchfab-12.66.0",
    "version": "2.0"
  },
  "bufferViews": [
    {
      "buffer": 0,
      "byteLength": 6270432,
      "name": "floatBufferViews",
      "target": 34963
    },
    {
      "buffer": 0,
      "byteLength": 4900584,
      "byteOffset": 6270432,
      "byteStride": 8,
      "name": "floatBufferViews",
      "target": 34962
    },
    {
      "buffer": 0,
      "byteLength": 14701752,
      "byteOffset": 11171016,
      "byteStride": 12,
      "name": "floatBufferViews",
      "target": 34962
    }
  ],
  "buffers": [
    {
      "byteLength": 25872768,
      "uri": "scene.bin"
    }
  ],
  "extensionsUsed": [
    "KHR_materials_unlit"
  ],
  "images": [
    {
      "uri": "textures/material0_baseColor.jpeg"
    }
  ],
  "materials": [
    {
      "doubleSided": true,
      "emissiveTexture": {
        "index": 0
      },
      "extensions": {
        "KHR_materials_unlit": {}
      },
      "name": "material0",
      "pbrMetallicRoughness": {
        "baseColorTexture": {
          "index": 0
        },
        "metallicFactor": 0.0
      }
    }
  ],
  "meshes": [
    {
      "name": "Object_0",
      "primitives": [
        {
          "attributes": {
            "NORMAL": 1,
            "POSITION": 0,
            "TEXCOORD_0": 2
          },
          "indices": 3,
          "material": 0,
          "mode": 4
        }
      ]
    },
    {
      "name": "Object_1",
      "primitives": [
        {
          "attributes": {
            "NORMAL": 5,
            "POSITION": 4,
            "TEXCOORD_0": 6
          },
          "indices": 7,
          "material": 0,
          "mode": 4
        }
      ]
    },
    {
      "name": "Object_2",
      "primitives": [
        {
          "attributes": {
            "NORMAL": 9,
            "POSITION": 8,
            "TEXCOORD_0": 10
          },
          "indices": 11,
          "material": 0,
          "mode": 4
        }
      ]
    },
    {
      "name": "Object_3",
      "primitives": [
        {
          "attributes": {
            "NORMAL": 13,
            "POSITION": 12,
            "TEXCOORD_0": 14
          },
          "indices": 15,
          "material": 0,
          "mode": 4
        }
      ]
    },
    {
      "name": "Object_4",
      "primitives": [
        {
          "attributes": {
            "NORMAL": 17,
            "POSITION": 16,
            "TEXCOORD_0": 18
          },
          "indices": 19,
          "material": 0,
          "mode": 4
        }
      ]
    },
    {
      "name": "Object_5",
      "primitives": [
        {
          "attributes": {
            "NORMAL": 21,
            "POSITION": 20,
            "TEXCOORD_0": 22
          },
          "indices": 23,
          "material": 0,
          "mode": 4
        }
      ]
    },
    {
      "name": "Object_6",
      "primitives": [
        {
          "attributes": {
            "NORMAL": 25,
            "POSITION": 24,
            "TEXCOORD_0": 26
          },
          "indices": 27,
          "material": 0,
          "mode": 4
        }
      ]
    },
    {
      "name": "Object_7",
      "primitives": [
        {
          "attributes": {
            "NORMAL": 29,
            "POSITION": 28,
            "TEXCOORD_0": 30
          },
          "indices": 31,
          "material": 0,
          "mode": 4
        }
      ]
    },
    {
      "name": "Object_8",
      "primitives": [
        {
          "attributes": {
            "NORMAL": 33,
            "POSITION": 32,
            "TEXCOORD_0": 34
          },
          "indices": 35,
          "material": 0,
          "mode": 4
        }
      ]
    },
    {
      "name": "Object_9",
      "primitives": [
        {
          "attributes": {
            "NORMAL": 37,
            "POSITION": 36,
            "TEXCOORD_0": 38
          },
          "indices": 39,
          "material": 0,
          "mode": 4
        }
      ]
    }
  ],
  "nodes": [
    {
      "children": [
        1
      ],
      "matrix": [
        1.0,
        0.0,
        0.0,
        0.0,
        0.0,
        2.220446049250313e-16,
        -1.0,
        0.0,
        0.0,
        1.0,
        2.220446049250313e-16,
        0.0,
        0.0,
        0.0,
        0.0,
        1.0
      ],
      "name": "Sketchfab_model"
    },
    {
      "children": [
        2,
        3,
        4,
        5,
        6,
        7,
        8,
        9,
        10,
        11
      ],
      "name": "model_Bamba Snack_20210201_150001564.obj.cleaner.materialmerger.gles"
    },
    {
      "mesh": 0,
      "name": "Object_2"
    },
    {
      "mesh": 1,
      "name": "Object_3"
    },
    {
      "mesh": 2,
      "name": "Object_4"
    },
    {
      "mesh": 3,
      "name": "Object_5"
    },
    {
      "mesh": 4,
      "name": "Object_6"
    },
    {
      "mesh": 5,
      "name": "Object_7"
    },
    {
      "mesh": 6,
      "name": "Object_8"
    },
    {
      "mesh": 7,
      "name": "Object_9"
    },
    {
      "mesh": 8,
      "name": "Object_10"
    },
    {
      "mesh": 9,
      "name": "Object_11"
    }
  ],
  "samplers": [
    {
      "magFilter": 9729,
      "minFilter": 9987,
      "wrapS": 10497,
      "wrapT": 10497
    }
  ],
  "scene": 0,
  "scenes": [
    {
      "name": "Sketchfab_Scene",
      "nodes": [
        0
      ]
    }
  ],
  "textures": [
    {
      "sampler": 0,
      "source": 0
    }
  ]
}
